<svg xmlns="http://www.w3.org/2000/svg" width="1920" height="1080" viewBox="0 0 1920 1080">
  <defs>
    <linearGradient id="bg" x1="0" y1="0" x2="1" y2="1">
      <stop offset="0%" stop-color="#f8faf9"/>
      <stop offset="62%" stop-color="#eef4f2"/>
      <stop offset="100%" stop-color="#f7f3ea"/>
    </linearGradient>
    <filter id="softShadow" x="-20%" y="-20%" width="140%" height="140%">
      <feDropShadow dx="0" dy="22" stdDeviation="20" flood-color="#20312f" flood-opacity="0.16"/>
    </filter>
    <filter id="lineGlow" x="-20%" y="-20%" width="140%" height="140%">
      <feDropShadow dx="0" dy="0" stdDeviation="3" flood-color="#ffffff" flood-opacity="0.9"/>
    </filter>
    <marker id="arrowOie" markerWidth="18" markerHeight="18" refX="14" refY="9" orient="auto" markerUnits="userSpaceOnUse">
      <path d="M2,2 L16,9 L2,16 Z" fill="#2f6f73"/>
    </marker>
    <marker id="arrowMed" markerWidth="18" markerHeight="18" refX="14" refY="9" orient="auto" markerUnits="userSpaceOnUse">
      <path d="M2,2 L16,9 L2,16 Z" fill="#4e7d47"/>
    </marker>
    <marker id="arrowGdt" markerWidth="18" markerHeight="18" refX="14" refY="9" orient="auto" markerUnits="userSpaceOnUse">
      <path d="M2,2 L16,9 L2,16 Z" fill="#b46b35"/>
    </marker>
    <marker id="arrowDcm" markerWidth="18" markerHeight="18" refX="14" refY="9" orient="auto" markerUnits="userSpaceOnUse">
      <path d="M2,2 L16,9 L2,16 Z" fill="#745f9c"/>
    </marker>
    <style>
      .title { font-family: "Segoe UI", Arial, sans-serif; font-size: 52px; font-weight: 650; fill: #172321; letter-spacing: 0; }
      .subtitle { font-family: "Segoe UI", Arial, sans-serif; font-size: 23px; font-weight: 400; fill: #5d6d68; letter-spacing: 0; }
      .node-title { font-family: "Segoe UI", Arial, sans-serif; font-size: 34px; font-weight: 650; fill: #172321; letter-spacing: 0; }
      .node-sub { font-family: "Segoe UI", Arial, sans-serif; font-size: 20px; font-weight: 420; fill: #5b6865; letter-spacing: 0; }
      .center-title { font-family: "Segoe UI", Arial, sans-serif; font-size: 43px; font-weight: 700; fill: #ffffff; letter-spacing: 0; }
      .center-sub { font-family: "Segoe UI", Arial, sans-serif; font-size: 20px; font-weight: 430; fill: #d7e6e2; letter-spacing: 0; }
      .lane-label { font-family: "Segoe UI", Arial, sans-serif; font-size: 22px; font-weight: 650; fill: #172321; letter-spacing: 0; }
      .lane-sub { font-family: "Segoe UI", Arial, sans-serif; font-size: 17px; font-weight: 430; fill: #51605d; letter-spacing: 0; }
      .micro { font-family: "Segoe UI", Arial, sans-serif; font-size: 15px; font-weight: 520; fill: #7a8581; letter-spacing: 1.2px; }
    </style>
  </defs>

  <rect width="1920" height="1080" fill="url(#bg)"/>

  <g opacity="0.45">
    <path d="M160 222 H1760" stroke="#d9e2df" stroke-width="1"/>
    <path d="M160 858 H1760" stroke="#d9e2df" stroke-width="1"/>
    <path d="M320 150 V930" stroke="#d9e2df" stroke-width="1"/>
    <path d="M1600 150 V930" stroke="#d9e2df" stroke-width="1"/>
    <circle cx="960" cy="540" r="412" fill="none" stroke="#dfe7e4" stroke-width="1.2"/>
    <circle cx="960" cy="540" r="282" fill="none" stroke="#e8eee9" stroke-width="1"/>
  </g>

  <text x="150" y="116" class="title">Healthcare Lab Workflow</text>
  <text x="151" y="156" class="subtitle">Current local interoperability surface</text>
  <text x="151" y="938" class="micro">LOCAL LAB CONTROL PLANE</text>

  <g filter="url(#lineGlow)" fill="none" stroke-linecap="round">
    <path d="M760 516 C615 500 520 444 414 363" stroke="#2f6f73" stroke-width="9" marker-end="url(#arrowOie)"/>
    <path d="M948 400 C935 316 937 257 960 205" stroke="#4e7d47" stroke-width="9" marker-end="url(#arrowMed)"/>
    <path d="M1160 516 C1312 495 1402 437 1506 363" stroke="#b46b35" stroke-width="9" marker-end="url(#arrowGdt)"/>
    <path d="M960 681 C964 756 973 808 995 870" stroke="#745f9c" stroke-width="9" marker-end="url(#arrowDcm)"/>
  </g>

  <g>
    <rect x="458" y="424" width="270" height="90" rx="12" fill="#ffffff" stroke="#cddbd7"/>
    <text x="593" y="462" text-anchor="middle" class="lane-label">HL7 v2 / MLLP</text>
    <text x="593" y="494" text-anchor="middle" class="lane-sub">ORM / ACK / ORU</text>

    <rect x="764" y="254" width="392" height="90" rx="12" fill="#ffffff" stroke="#cddbd7"/>
    <text x="960" y="292" text-anchor="middle" class="lane-label">FHIR R4 REST API</text>
    <text x="960" y="324" text-anchor="middle" class="lane-sub">OAuth / Patient-ServiceRequest sync</text>

    <rect x="1190" y="424" width="316" height="90" rx="12" fill="#ffffff" stroke="#cddbd7"/>
    <text x="1348" y="462" text-anchor="middle" class="lane-label">GDT 2.1 Bridge</text>
    <text x="1348" y="494" text-anchor="middle" class="lane-sub">6302 export / 6310 import</text>

    <rect x="753" y="742" width="414" height="90" rx="12" fill="#ffffff" stroke="#cddbd7"/>
    <text x="960" y="780" text-anchor="middle" class="lane-label">DICOM MWL REST</text>
    <text x="960" y="812" text-anchor="middle" class="lane-sub">DICOM JSON / create-query-verify MWL</text>
  </g>

  <g filter="url(#softShadow)">
    <rect x="756" y="420" width="408" height="240" rx="28" fill="#172321"/>
    <rect x="780" y="444" width="360" height="192" rx="18" fill="none" stroke="#36504b" stroke-width="2"/>
    <circle cx="829" cy="493" r="18" fill="#70b8ae"/>
    <circle cx="879" cy="493" r="18" fill="#a8c66c"/>
    <circle cx="929" cy="493" r="18" fill="#d8a157"/>
    <text x="960" y="559" text-anchor="middle" class="center-title">Healthcare Lab</text>
    <text x="960" y="594" text-anchor="middle" class="center-sub">Lab Console | Workflow Ledger</text>
    <text x="960" y="624" text-anchor="middle" class="center-sub">Health Dashboard</text>
  </g>

  <g filter="url(#softShadow)">
    <rect x="190" y="258" width="252" height="142" rx="22" fill="#ffffff"/>
    <rect x="190" y="258" width="252" height="142" rx="22" fill="none" stroke="#d5e0dc"/>
    <rect x="218" y="286" width="54" height="54" rx="12" fill="#dfeeed"/>
    <path d="M231 315 H259 M245 301 V329" stroke="#2f6f73" stroke-width="5" stroke-linecap="round"/>
    <text x="294" y="316" class="node-title">OIE</text>
    <text x="218" y="365" class="node-sub">HL7 Engine</text>
  </g>

  <g filter="url(#softShadow)">
    <rect x="784" y="70" width="352" height="142" rx="22" fill="#ffffff"/>
    <rect x="784" y="70" width="352" height="142" rx="22" fill="none" stroke="#d5e0dc"/>
    <rect x="812" y="98" width="54" height="54" rx="12" fill="#e8efd9"/>
    <path d="M824 126 C838 106 855 108 858 128 C860 143 841 146 824 126 Z" fill="#4e7d47"/>
    <text x="888" y="128" class="node-title">Medplum</text>
    <text x="812" y="177" class="node-sub">FHIR Server</text>
  </g>

  <g filter="url(#softShadow)">
    <rect x="1478" y="258" width="282" height="142" rx="22" fill="#ffffff"/>
    <rect x="1478" y="258" width="282" height="142" rx="22" fill="none" stroke="#d5e0dc"/>
    <rect x="1506" y="286" width="54" height="54" rx="12" fill="#f3e6d5"/>
    <path d="M1519 301 H1548 V329 H1519 Z M1528 310 H1539 M1528 320 H1539" stroke="#b46b35" stroke-width="4" fill="none" stroke-linecap="round"/>
    <text x="1581" y="316" class="node-title">In-house GDT</text>
    <text x="1506" y="365" class="node-sub">GDT Bridge</text>
  </g>

  <g filter="url(#softShadow)">
    <rect x="777" y="875" width="366" height="142" rx="22" fill="#ffffff"/>
    <rect x="777" y="875" width="366" height="142" rx="22" fill="none" stroke="#d5e0dc"/>
    <rect x="805" y="903" width="54" height="54" rx="12" fill="#e9e3f0"/>
    <circle cx="832" cy="930" r="19" fill="none" stroke="#745f9c" stroke-width="4"/>
    <path d="M832 911 V949 M813 930 H851" stroke="#745f9c" stroke-width="3"/>
    <text x="882" y="933" class="node-title">dcm4chee</text>
    <text x="805" y="982" class="node-sub">DICOM Archive / MWL</text>
  </g>

  <g opacity="0.85">
    <circle cx="1802" cy="104" r="7" fill="#2f6f73"/>
    <circle cx="1830" cy="104" r="7" fill="#4e7d47"/>
    <circle cx="1858" cy="104" r="7" fill="#b46b35"/>
    <circle cx="1886" cy="104" r="7" fill="#745f9c"/>
  </g>
</svg>
