<svg xmlns="http://www.w3.org/2000/svg" width="1920" height="1080" viewBox="0 0 1920 1080">
  <defs>
    <linearGradient id="bg" x1="0" y1="0" x2="1" y2="1">
      <stop offset="0%" stop-color="#f8fbfa"/>
      <stop offset="58%" stop-color="#edf5f0"/>
      <stop offset="100%" stop-color="#f8f3eb"/>
    </linearGradient>
    <linearGradient id="containerFill" x1="0" y1="0" x2="1" y2="1">
      <stop offset="0%" stop-color="#e8f3ee"/>
      <stop offset="100%" stop-color="#f6f8f5"/>
    </linearGradient>
    <filter id="shadow" x="-20%" y="-20%" width="140%" height="140%">
      <feDropShadow dx="0" dy="20" stdDeviation="18" flood-color="#1f2d2a" flood-opacity="0.14"/>
    </filter>
    <filter id="soft" x="-20%" y="-20%" width="140%" height="140%">
      <feDropShadow dx="0" dy="8" stdDeviation="8" flood-color="#ffffff" flood-opacity="0.86"/>
    </filter>
    <marker id="orderArrow" markerWidth="18" markerHeight="18" refX="14" refY="9" orient="auto" markerUnits="userSpaceOnUse">
      <path d="M2,2 L16,9 L2,16 Z" fill="#4e7d47"/>
    </marker>
    <marker id="resultArrow" markerWidth="18" markerHeight="18" refX="14" refY="9" orient="auto" markerUnits="userSpaceOnUse">
      <path d="M2,2 L16,9 L2,16 Z" fill="#745f9c"/>
    </marker>
    <marker id="dbArrow" markerWidth="15" markerHeight="15" refX="12" refY="7.5" orient="auto" markerUnits="userSpaceOnUse">
      <path d="M2,2 L13,7.5 L2,13 Z" fill="#7a8581"/>
    </marker>
    <style>
      .title { font-family: "Segoe UI", Arial, sans-serif; font-size: 52px; font-weight: 680; fill: #172321; letter-spacing: 0; }
      .subtitle { font-family: "Segoe UI", Arial, sans-serif; font-size: 23px; font-weight: 420; fill: #5d6d68; letter-spacing: 0; }
      .frame-title { font-family: "Segoe UI", Arial, sans-serif; font-size: 25px; font-weight: 700; fill: #2d5b4e; letter-spacing: 1px; }
      .node-title { font-family: "Segoe UI", Arial, sans-serif; font-size: 42px; font-weight: 720; fill: #172321; letter-spacing: 0; }
      .node-sub { font-family: "Segoe UI", Arial, sans-serif; font-size: 22px; font-weight: 430; fill: #5e6c69; letter-spacing: 0; }
      .tag { font-family: "Segoe UI", Arial, sans-serif; font-size: 20px; font-weight: 760; fill: #172321; letter-spacing: 0; }
      .tag-small { font-family: "Segoe UI", Arial, sans-serif; font-size: 17px; font-weight: 440; fill: #53625f; letter-spacing: 0; }
      .port { font-family: "Consolas", "Segoe UI Mono", monospace; font-size: 22px; font-weight: 700; fill: #172321; letter-spacing: 0; }
      .db-title { font-family: "Segoe UI", Arial, sans-serif; font-size: 24px; font-weight: 700; fill: #172321; letter-spacing: 0; }
      .db-sub { font-family: "Segoe UI", Arial, sans-serif; font-size: 16px; font-weight: 430; fill: #5e6c69; letter-spacing: 0; }
      .micro { font-family: "Segoe UI", Arial, sans-serif; font-size: 15px; font-weight: 600; fill: #7b8784; letter-spacing: 1.3px; }
    </style>
  </defs>

  <rect width="1920" height="1080" fill="url(#bg)"/>
  <g opacity="0.45">
    <path d="M150 220 H1770" stroke="#dce5e3"/>
    <path d="M150 858 H1770" stroke="#dce5e3"/>
    <path d="M320 150 V930" stroke="#dce5e3"/>
    <path d="M1600 150 V930" stroke="#dce5e3"/>
  </g>

  <text x="150" y="116" class="title">Healthcare Lab / FHIR / AP Workflow</text>
  <text x="151" y="156" class="subtitle">FHIR order publication, AP result submission, and local dashboard ledger</text>

  <g>
    <rect x="170" y="246" width="1065" height="650" rx="34" fill="url(#containerFill)" stroke="#bbd7ca" stroke-width="3"/>
    <path d="M210 318 H1195" stroke="#cde1d7" stroke-width="2"/>
    <text x="218" y="296" class="frame-title">DOCKER CONTAINER</text>
    <text x="1060" y="296" text-anchor="end" class="micro">LAB-APP + FHIR NETWORK</text>
  </g>

  <g filter="url(#shadow)">
    <rect x="260" y="408" width="365" height="220" rx="28" fill="#ffffff" stroke="#d5e0dc"/>
    <rect x="292" y="444" width="74" height="74" rx="17" fill="#dfeeed"/>
    <path d="M309 480 H349 M329 460 V500" stroke="#2f6f73" stroke-width="7" stroke-linecap="round"/>
    <text x="400" y="492" class="node-title">Dashboard</text>
    <text x="294" y="569" class="node-sub">Healthcare Lab UI</text>
    <text x="294" y="604" class="node-sub">FHIR workflow console</text>
  </g>

  <g filter="url(#shadow)">
    <rect x="802" y="408" width="345" height="220" rx="28" fill="#ffffff" stroke="#d5e0dc"/>
    <rect x="834" y="444" width="74" height="74" rx="17" fill="#e8efd9"/>
    <path d="M847 481 C864 455 890 458 894 483 C897 506 867 511 847 481 Z" fill="#4e7d47"/>
    <text x="934" y="492" class="node-title">FHIR</text>
    <text x="836" y="569" class="node-sub">Medplum FHIR R4 API</text>
    <text x="836" y="604" class="node-sub">Canonical clinical resources</text>
  </g>

  <g filter="url(#shadow)">
    <rect x="1412" y="408" width="345" height="220" rx="28" fill="#ffffff" stroke="#d5e0dc"/>
    <rect x="1444" y="444" width="74" height="74" rx="17" fill="#e9e3f0"/>
    <path d="M1460 500 C1475 461 1501 461 1516 500 M1469 500 H1507" stroke="#745f9c" stroke-width="6" fill="none" stroke-linecap="round"/>
    <text x="1545" y="492" class="node-title">AP</text>
    <text x="1446" y="569" class="node-sub">ECG AP simulator</text>
    <text x="1446" y="604" class="node-sub">Worklist read + result submit</text>
  </g>

  <g filter="url(#shadow)">
    <rect x="334" y="704" width="240" height="132" rx="22" fill="#ffffff" stroke="#d5e0dc"/>
    <ellipse cx="454" cy="736" rx="54" ry="16" fill="#f0f3f1" stroke="#bfcac6" stroke-width="2"/>
    <path d="M400 736 V778 C400 787 424 794 454 794 C484 794 508 787 508 778 V736" fill="#f0f3f1" stroke="#bfcac6" stroke-width="2"/>
    <text x="454" y="758" text-anchor="middle" class="db-title">Local SQLite DB</text>
    <text x="454" y="786" text-anchor="middle" class="db-sub">workflow ledger / audit</text>
    <text x="454" y="814" text-anchor="middle" class="db-sub">SQLite / no network port</text>
  </g>

  <g fill="none" stroke-linecap="round" stroke-width="9">
    <path d="M625 468 C685 433 742 433 802 468" stroke="#4e7d47" marker-end="url(#orderArrow)"/>
    <path d="M1147 467 C1235 392 1328 392 1412 467" stroke="#4e7d47" marker-end="url(#orderArrow)"/>
    <path d="M1412 572 C1324 665 1236 665 1147 572" stroke="#745f9c" marker-end="url(#resultArrow)"/>
    <path d="M802 572 C738 668 689 668 625 572" stroke="#745f9c" marker-end="url(#resultArrow)"/>
    <path d="M452 628 V704" stroke="#7a8581" stroke-width="6" marker-end="url(#dbArrow)"/>
  </g>

  <g filter="url(#soft)">
    <rect x="650" y="320" width="290" height="110" rx="14" fill="#ffffff" stroke="#cddbd7"/>
    <text x="795" y="356" text-anchor="middle" class="tag">FHIR R4 REST</text>
    <text x="795" y="387" text-anchor="middle" class="tag-small">Patient / ServiceRequest</text>
    <text x="795" y="414" text-anchor="middle" class="port">medplum:8103</text>

    <rect x="1206" y="320" width="322" height="110" rx="14" fill="#ffffff" stroke="#cddbd7"/>
    <text x="1367" y="356" text-anchor="middle" class="tag">FHIR R4 REST</text>
    <text x="1367" y="387" text-anchor="middle" class="tag-small">AP reads ServiceRequest</text>
    <text x="1367" y="414" text-anchor="middle" class="port">FHIR:8103</text>

    <rect x="1206" y="656" width="322" height="116" rx="14" fill="#ffffff" stroke="#cddbd7"/>
    <text x="1367" y="692" text-anchor="middle" class="tag">FHIR R4 REST</text>
    <text x="1367" y="723" text-anchor="middle" class="tag-small">DiagnosticReport / Observation</text>
    <text x="1367" y="750" text-anchor="middle" class="port">FHIR:8103</text>

    <rect x="650" y="656" width="290" height="116" rx="14" fill="#ffffff" stroke="#cddbd7"/>
    <text x="795" y="692" text-anchor="middle" class="tag">FHIR R4 REST</text>
    <text x="795" y="723" text-anchor="middle" class="tag-small">Dashboard reads results</text>
    <text x="795" y="750" text-anchor="middle" class="port">medplum:8103</text>

  </g>

  <g>
    <rect x="150" y="930" width="300" height="44" rx="22" fill="#ffffff" stroke="#d8e2df"/>
    <circle cx="182" cy="952" r="7" fill="#4e7d47"/>
    <text x="202" y="958" class="micro">FHIR ORDER FLOW</text>
    <rect x="474" y="930" width="312" height="44" rx="22" fill="#ffffff" stroke="#d8e2df"/>
    <circle cx="506" cy="952" r="7" fill="#745f9c"/>
    <text x="526" y="958" class="micro">FHIR RESULT FLOW</text>
    <rect x="810" y="930" width="330" height="44" rx="22" fill="#ffffff" stroke="#d8e2df"/>
    <circle cx="842" cy="952" r="7" fill="#7a8581"/>
    <text x="862" y="958" class="micro">LOCAL LEDGER</text>
  </g>
</svg>
